<svg width="70" height="75" viewBox="0 0 70 75" fill="none" xmlns="http://www.w3.org/2000/svg">
<path d="M43.2002 0H7.66683C3.89476 0.00413265 0.838014 2.79993 0.833496 6.25V58.75C0.838014 62.2001 3.89476 64.9959 7.66683 65H19.9668V68.75C19.9714 72.2001 23.0281 74.9959 26.8002 75H62.3335C66.1056 74.9959 69.1623 72.2001 69.1668 68.75V16.25C69.1623 12.7999 66.1056 10.0041 62.3335 10H50.0335V6.25C50.029 2.79993 46.9722 0.00413265 43.2002 0ZM50.0335 51.0537C51.2144 52.8562 52.5764 54.554 54.1021 56.125C54.1234 56.1485 54.1346 56.1783 54.1335 56.2087C52.6935 55.8136 51.3154 55.2498 50.0335 54.5312V51.0537ZM50.0335 58.75V57.385C51.1643 57.9127 52.3478 58.3401 53.5677 58.6613C53.7963 58.7203 54.0327 58.7502 54.2702 58.75C55.1455 58.7436 55.9554 58.325 56.4131 57.6425C57.1084 56.6647 57.0149 55.3845 56.1835 54.5C54.1854 52.3662 50.0335 47.9238 50.0335 42.5C50.0335 37.0762 54.1841 32.6338 56.1835 30.5C57.0138 29.6154 57.1068 28.336 56.4117 27.3587C55.8233 26.4729 54.6603 26.056 53.5704 26.34C52.3496 26.6605 51.1652 27.0875 50.0335 27.615V17.5H52.8611C53.4709 21.3378 56.7699 24.3506 60.9668 24.9025L60.9791 60.0863C56.7784 60.6394 53.4783 63.6578 52.8734 67.5H36.2684C36.1316 66.6333 35.8524 65.7904 35.4402 65H43.2002C46.9722 64.9959 50.029 62.2001 50.0335 58.75ZM50.0335 30.4675C51.3157 29.7498 52.6937 29.1864 54.1335 28.7913C54.1349 28.8216 54.1242 28.8513 54.1034 28.875C52.5767 30.4446 51.2141 32.1416 50.0335 33.9438V30.4675ZM3.56683 58.75V6.25C3.56683 4.17893 5.40246 2.5 7.66683 2.5H43.2002C45.4645 2.5 47.3002 4.17893 47.3002 6.25V58.75C47.3002 60.8211 45.4645 62.5 43.2002 62.5H7.66683C5.40246 62.5 3.56683 60.8211 3.56683 58.75ZM62.3335 12.5C64.5979 12.5 66.4335 14.1789 66.4335 16.25V68.75C66.4335 70.8211 64.5979 72.5 62.3335 72.5H26.8002C24.5358 72.5 22.7002 70.8211 22.7002 68.75V65H32.2422C32.9398 65.8326 33.3946 66.8138 33.5638 67.8512C33.7462 69.0847 34.8994 70.0037 36.2602 70H52.8734C54.2273 69.9956 55.3736 69.0854 55.5685 67.86C56.0069 65.117 58.3626 62.9628 61.3618 62.5625C62.701 62.3836 63.6954 61.3353 63.7002 60.0975V24.9025C63.6953 23.6642 62.7002 22.6158 61.3604 22.4375C58.3624 22.0356 56.008 19.8821 55.5685 17.14C55.3736 15.9146 54.2273 15.0044 52.8734 15H50.0335V12.5H62.3335Z" fill="black"/>
<path d="M9.03366 7.5C9.78845 7.5 10.4003 6.94036 10.4003 6.25C10.4003 5.55964 9.78845 5 9.03366 5C8.27887 5 7.66699 5.55964 7.66699 6.25C7.66699 6.94036 8.27887 7.5 9.03366 7.5Z" fill="black"/>
<path d="M41.8335 7.5C42.5882 7.5 43.2001 6.94036 43.2001 6.25C43.2001 5.55964 42.5882 5 41.8335 5C41.0787 5 40.4668 5.55964 40.4668 6.25C40.4668 6.94036 41.0787 7.5 41.8335 7.5Z" fill="black"/>
<path d="M60.9668 17.5C61.7216 17.5 62.3334 16.9404 62.3334 16.25C62.3334 15.5596 61.7216 15 60.9668 15C60.212 15 59.6001 15.5596 59.6001 16.25C59.6001 16.9404 60.212 17.5 60.9668 17.5Z" fill="black"/>
<path d="M60.9668 70C61.7216 70 62.3334 69.4404 62.3334 68.75C62.3334 68.0596 61.7216 67.5 60.9668 67.5C60.212 67.5 59.6001 68.0596 59.6001 68.75C59.6001 69.4404 60.212 70 60.9668 70Z" fill="black"/>
<path d="M28.167 70C28.9217 70 29.5336 69.4404 29.5336 68.75C29.5336 68.0596 28.9217 67.5 28.167 67.5C27.4122 67.5 26.8003 68.0596 26.8003 68.75C26.8003 69.4404 27.4122 70 28.167 70Z" fill="black"/>
<path d="M9.03366 60C9.78845 60 10.4003 59.4404 10.4003 58.75C10.4003 58.0596 9.78845 57.5 9.03366 57.5C8.27887 57.5 7.66699 58.0596 7.66699 58.75C7.66699 59.4404 8.27887 60 9.03366 60Z" fill="black"/>
<path d="M36.4353 57.86C36.8736 55.117 39.2294 52.9628 42.2286 52.5625C43.5678 52.3836 44.5622 51.3353 44.567 50.0975V14.9025C44.5621 13.6642 43.567 12.6158 42.2272 12.4375C40.7617 12.252 39.4045 11.6279 38.3678 10.6625C37.3169 9.71512 36.6376 8.47682 36.4353 7.14C36.2403 5.91464 35.0941 5.00443 33.7402 5H17.127C15.7732 5.00443 14.6269 5.91464 14.432 7.14C14.2282 8.48051 13.5459 9.72191 12.4913 10.6712C11.4549 11.6322 10.1006 12.2531 8.63866 12.4375C7.29948 12.6164 6.30504 13.6647 6.30029 14.9025V50.0975C6.30835 51.3367 7.30487 52.3846 8.64549 52.5637C11.6393 52.9636 13.9913 55.1133 14.4306 57.8512C14.6129 59.0847 15.7662 60.0037 17.127 60H33.7402C35.0941 59.9956 36.2403 59.0854 36.4353 57.86ZM41.8336 32.5C41.8306 36.7242 39.874 40.7501 36.4476 43.5825L33.1799 34.2575L41.179 28.3425C41.6104 29.6932 41.8308 31.0929 41.8336 32.5ZM20.1583 35.94L23.3836 38.2863L18.0031 42.2663L20.1583 35.94ZM12.9464 27.5H20.1692L18.737 31.7113L12.9464 27.5ZM21.0302 33.375L23.0324 27.5H27.9415L30.0051 33.39L25.5621 36.6763L21.0302 33.375ZM23.8838 25L25.4528 20.3975L27.0641 25H23.8838ZM30.9003 35.9437L33.0719 42.14L27.7529 38.265L30.9003 35.9437ZM32.2847 31.7038L30.8115 27.5H37.9701L32.2847 31.7038ZM29.9354 25L27.347 17.6112C32.4807 18.1681 37.0269 20.9063 39.6142 25H29.9354ZM21.0207 25H11.2531C13.8436 20.9008 18.3981 18.1609 23.5394 17.6087L21.0207 25ZM9.69236 28.3262L17.8637 34.2712L14.637 43.7588C9.83535 39.9391 7.90615 33.9112 9.69783 28.3262H9.69236ZM25.5703 39.8813L33.4163 45.5888C28.5407 48.0912 22.6043 48.1383 17.6819 45.7137L25.5703 39.8813ZM14.4238 12.4375C15.8904 11.1059 16.8398 9.37173 17.127 7.5L33.7279 7.49C34.3388 11.3308 37.635 14.3487 41.8336 14.9113V23.5363C38.3896 18.25 32.1615 15.0083 25.4336 15H25.4254C18.6954 15.0109 12.4671 18.2566 9.02543 23.5462V14.9137C11.0707 14.6452 12.9652 13.7762 14.4238 12.4375ZM14.7941 52.9163C13.2977 51.3844 11.2573 50.386 9.03363 50.0975V41.4625C12.473 46.7572 18.709 50.0018 25.4425 50C32.176 49.9982 38.4099 46.7503 41.8459 41.4537V50.0863C37.6452 50.6394 34.345 53.6578 33.7402 57.5H17.1352C16.868 55.7939 16.0532 54.1986 14.7941 52.9163Z" fill="black"/>
<path d="M41.8335 60C42.5882 60 43.2001 59.4404 43.2001 58.75C43.2001 58.0596 42.5882 57.5 41.8335 57.5C41.0787 57.5 40.4668 58.0596 40.4668 58.75C40.4668 59.4404 41.0787 60 41.8335 60Z" fill="black"/>
</svg>
