<svg width="70" height="70" viewBox="0 0 70 70" fill="none" xmlns="http://www.w3.org/2000/svg">
<path d="M66.5 53.6669H3.50042C3.07798 53.6669 2.68811 53.4378 2.48197 53.0704C2.27529 52.7019 2.28437 52.2506 2.50493 51.8912L33.9551 0.557556C34.1671 0.210953 34.5441 0 34.9489 0H34.95C35.3548 0 35.7319 0.209885 35.9439 0.556488L67.4944 51.8896C67.7144 52.2506 67.7251 52.7008 67.5184 53.0704C67.3123 53.4378 66.9224 53.6669 66.5 53.6669ZM5.58271 51.3331H64.4129L34.9511 3.39714L5.58271 51.3331Z" fill="black"/>
<path d="M34.95 70C34.5441 70 34.1671 69.7891 33.9551 69.4425L2.50493 18.1089C2.28437 17.7484 2.27529 17.2982 2.48197 16.9297C2.68811 16.5622 3.07798 16.3331 3.50042 16.3331H66.5C66.9224 16.3331 67.3123 16.5622 67.5184 16.9307C67.7251 17.2992 67.7144 17.7511 67.4944 18.1115L35.9439 69.4446C35.7319 69.7902 35.3548 70 34.95 70ZM5.58271 18.667L34.9511 66.6029L64.4129 18.667H5.58271Z" fill="black"/>
<path d="M35.0002 44.3331C31.5246 44.3331 28.2695 42.7294 25.8358 39.815L22.4386 35.7476C22.0771 35.315 22.0771 34.6848 22.4386 34.2523L25.8358 30.1849C28.2695 27.2705 31.5246 25.6667 35.0002 25.6667C38.4759 25.6667 41.7309 27.2705 44.1646 30.1849L47.5618 34.2523C47.9233 34.6848 47.9233 35.315 47.5618 35.7476L44.1646 39.815C41.7309 42.7294 38.4759 44.3331 35.0002 44.3331ZM24.8537 34.9999L27.6259 38.3191C29.6089 40.6919 32.2285 41.9998 35.0002 41.9998C37.772 41.9998 40.3915 40.6919 42.3734 38.3191L45.1468 34.9999L42.3745 31.6808C40.3915 29.308 37.772 28 35.0002 28C32.2285 28 29.6089 29.308 27.6259 31.6808L24.8537 34.9999Z" fill="black"/>
<path d="M35.0001 39.6666C32.4265 39.6666 30.3335 37.5736 30.3335 35C30.3335 32.4263 32.4265 30.3334 35.0001 30.3334C37.5737 30.3334 39.6667 32.4263 39.6667 35C39.6667 37.5736 37.5737 39.6666 35.0001 39.6666ZM35.0001 32.6667C33.713 32.6667 32.6668 33.7129 32.6668 35C32.6668 36.287 33.713 37.3333 35.0001 37.3333C36.2872 37.3333 37.3334 36.287 37.3334 35C37.3334 33.7129 36.2872 32.6667 35.0001 32.6667Z" fill="black"/>
<path d="M16.3329 12.8334C15.6893 12.8334 15.1665 12.3106 15.1665 11.6665V4.66663C15.1665 4.02255 15.6893 3.50024 16.3329 3.50024C16.977 3.50024 17.4998 4.02255 17.4998 4.66663V11.6665C17.4998 12.3106 16.977 12.8334 16.3329 12.8334Z" fill="black"/>
<path d="M19.8333 9.33318H12.8334C12.1893 9.33318 11.6665 8.81087 11.6665 8.16679C11.6665 7.52272 12.1893 6.99988 12.8334 6.99988H19.8333C20.4774 6.99988 21.0002 7.52272 21.0002 8.16679C21.0002 8.81087 20.4774 9.33318 19.8333 9.33318Z" fill="black"/>
<path d="M52.4999 12.8334C51.8559 12.8334 51.333 12.3106 51.333 11.6665V4.66663C51.333 4.02255 51.8559 3.50024 52.4999 3.50024C53.144 3.50024 53.6668 4.02255 53.6668 4.66663V11.6665C53.6668 12.3106 53.144 12.8334 52.4999 12.8334Z" fill="black"/>
<path d="M56.0003 9.33318H48.9999C48.3563 9.33318 47.8335 8.81087 47.8335 8.16679C47.8335 7.52272 48.3563 6.99988 48.9999 6.99988H56.0003C56.6438 6.99988 57.1667 7.52272 57.1667 8.16679C57.1667 8.81087 56.6438 9.33318 56.0003 9.33318Z" fill="black"/>
<path d="M16.3329 66.4998C15.6893 66.4998 15.1665 65.9775 15.1665 65.3334V58.3335C15.1665 57.6895 15.6893 57.1666 16.3329 57.1666C16.977 57.1666 17.4998 57.6895 17.4998 58.3335V65.3334C17.4998 65.9775 16.977 66.4998 16.3329 66.4998Z" fill="black"/>
<path d="M19.8333 63H12.8334C12.1893 63 11.6665 62.4772 11.6665 61.8331C11.6665 61.1891 12.1893 60.6667 12.8334 60.6667H19.8333C20.4774 60.6667 21.0002 61.1891 21.0002 61.8331C21.0002 62.4772 20.4774 63 19.8333 63Z" fill="black"/>
<path d="M4.66638 39.6666C4.02231 39.6666 3.5 39.1437 3.5 38.5002V31.4998C3.5 30.8562 4.02231 30.3334 4.66638 30.3334C5.31046 30.3334 5.8333 30.8562 5.8333 31.4998V38.5002C5.8333 39.1437 5.31046 39.6666 4.66638 39.6666Z" fill="black"/>
<path d="M8.16681 36.167H1.16692C0.522842 36.167 0 35.6441 0 35C0 34.356 0.522842 33.8331 1.16692 33.8331H8.16681C8.81088 33.8331 9.33319 34.356 9.33319 35C9.33319 35.6441 8.81088 36.167 8.16681 36.167Z" fill="black"/>
<path d="M65.3334 39.6666C64.6893 39.6666 64.1665 39.1437 64.1665 38.5002V31.4998C64.1665 30.8562 64.6893 30.3334 65.3334 30.3334C65.9775 30.3334 66.4998 30.8562 66.4998 31.4998V38.5002C66.4998 39.1437 65.9775 39.6666 65.3334 39.6666Z" fill="black"/>
<path d="M68.8333 36.167H61.8334C61.1893 36.167 60.667 35.6441 60.667 35C60.667 34.356 61.1893 33.8331 61.8334 33.8331H68.8333C69.4773 33.8331 70.0002 34.356 70.0002 35C70.0002 35.6441 69.4773 36.167 68.8333 36.167Z" fill="black"/>
<path d="M52.4999 66.4998C51.8559 66.4998 51.333 65.9775 51.333 65.3334V58.3335C51.333 57.6895 51.8559 57.1666 52.4999 57.1666C53.144 57.1666 53.6668 57.6895 53.6668 58.3335V65.3334C53.6668 65.9775 53.144 66.4998 52.4999 66.4998Z" fill="black"/>
<path d="M56.0003 63H48.9999C48.3563 63 47.8335 62.4772 47.8335 61.8331C47.8335 61.1891 48.3563 60.6667 48.9999 60.6667H56.0003C56.6438 60.6667 57.1667 61.1891 57.1667 61.8331C57.1667 62.4772 56.6438 63 56.0003 63Z" fill="black"/>
</svg>
