<svg width="65" height="57" viewBox="0 0 65 57" fill="none" xmlns="http://www.w3.org/2000/svg">
<path d="M63.8477 0H27.7102C27.4563 0 27.2129 0.088277 27.0334 0.245411C26.854 0.402545 26.7531 0.615664 26.7531 0.837885V5.6258H14.3336C14.0798 5.6258 13.8363 5.71408 13.6569 5.87121C13.4774 6.02835 13.3766 6.24147 13.3766 6.46369V11.2516H0.957031C0.703211 11.2516 0.459786 11.3399 0.280308 11.497C0.10083 11.6542 0 11.8673 0 12.0895V55.8989C0 56.1212 0.10083 56.3343 0.280308 56.4914C0.459786 56.6485 0.703211 56.7368 0.957031 56.7368H37.0962C37.35 56.7368 37.5934 56.6485 37.7729 56.4914C37.9524 56.3343 38.0532 56.1212 38.0532 55.8989V51.111H50.4711C50.7249 51.111 50.9683 51.0227 51.1478 50.8656C51.3273 50.7085 51.4281 50.4953 51.4281 50.2731V45.4852H63.8477C64.1015 45.4852 64.3449 45.3969 64.5244 45.2398C64.7039 45.0827 64.8047 44.8695 64.8047 44.6473V0.837885C64.8047 0.615664 64.7039 0.402545 64.5244 0.245411C64.3449 0.088277 64.1015 0 63.8477 0ZM1.91406 55.061V12.9274H36.1391V19.6745V19.6956V37.0412V37.0623V50.2592V50.2731C36.1391 50.2731 36.1391 50.2822 36.1391 50.287V55.061H1.91406ZM38.0532 21.1707C39.3881 21.9726 40.4799 23.0469 41.2343 24.301C41.9886 25.5551 42.3828 26.9511 42.3828 28.3684C42.3828 29.7857 41.9886 31.1818 41.2343 32.4358C40.4799 33.6899 39.3881 34.7642 38.0532 35.5661V21.1707ZM49.5141 49.4352H38.0532V37.5277C39.941 36.6363 41.5182 35.3142 42.6174 33.7017C43.7167 32.0892 44.2971 30.2463 44.2971 28.3684C44.2971 26.4905 43.7167 24.6476 42.6174 23.0351C41.5182 21.4226 39.941 20.1006 38.0532 19.2091V12.0895C38.0532 11.8673 37.9524 11.6542 37.7729 11.497C37.5934 11.3399 37.35 11.2516 37.0962 11.2516H19.1406V10.6723H21.4648C21.7187 10.6723 21.9621 10.584 22.1416 10.4269C22.321 10.2697 22.4219 10.0566 22.4219 9.83438C22.4219 9.61216 22.321 9.39904 22.1416 9.24191C21.9621 9.08477 21.7187 8.9965 21.4648 8.9965H18.1836C17.9298 8.9965 17.6863 9.08477 17.5069 9.24191C17.3274 9.39904 17.2266 9.61216 17.2266 9.83438V11.2516H15.2906V7.30157H49.5141V49.4352ZM51.4281 15.5445C52.7635 16.3461 53.8557 17.4205 54.6103 18.6747C55.365 19.9288 55.7594 21.325 55.7594 22.7426C55.7594 24.1602 55.365 25.5564 54.6103 26.8106C53.8557 28.0647 52.7635 29.1391 51.4281 29.9408V15.5445ZM62.8906 43.8094H51.4281V31.9024C53.3164 31.0111 54.8939 29.6891 55.9935 28.0765C57.0931 26.4638 57.6736 24.6207 57.6736 22.7426C57.6736 20.8645 57.0931 19.0214 55.9935 17.4088C54.8939 15.7961 53.3164 14.4741 51.4281 13.5828V6.46369C51.4281 6.24147 51.3273 6.02835 51.1478 5.87121C50.9683 5.71408 50.7249 5.6258 50.4711 5.6258H32.5172V5.04646H34.8414C35.0952 5.04646 35.3386 4.95819 35.5181 4.80105C35.6976 4.64392 35.7984 4.4308 35.7984 4.20858C35.7984 3.98636 35.6976 3.77324 35.5181 3.6161C35.3386 3.45897 35.0952 3.37069 34.8414 3.37069H31.5602C31.3063 3.37069 31.0629 3.45897 30.8834 3.6161C30.704 3.77324 30.6031 3.98636 30.6031 4.20858V5.6258H28.6672V1.67577H62.8906V43.8094Z" fill="black"/>
<path d="M56.7153 5.04738H59.0396V7.08227C59.0396 7.30449 59.1404 7.51761 59.3199 7.67475C59.4993 7.83189 59.7428 7.92017 59.9966 7.92017C60.2504 7.92017 60.4938 7.83189 60.6733 7.67475C60.8528 7.51761 60.9536 7.30449 60.9536 7.08227V4.20948C60.9537 4.09943 60.929 3.99044 60.8809 3.88876C60.8328 3.78707 60.7623 3.69467 60.6735 3.61686C60.5846 3.53904 60.4791 3.47732 60.3629 3.43524C60.2468 3.39315 60.1223 3.37152 59.9966 3.37158H56.7153C56.4615 3.37158 56.2181 3.45986 56.0386 3.617C55.8591 3.77413 55.7583 3.98726 55.7583 4.20948C55.7583 4.4317 55.8591 4.64483 56.0386 4.80196C56.2181 4.9591 56.4615 5.04738 56.7153 5.04738Z" fill="black"/>
<path d="M59.9966 37.5651C59.7428 37.5651 59.4993 37.6533 59.3199 37.8105C59.1404 37.9676 59.0396 38.1807 59.0396 38.4029V40.4378H56.7153C56.4615 40.4378 56.2181 40.5261 56.0386 40.6832C55.8591 40.8403 55.7583 41.0534 55.7583 41.2757C55.7583 41.4979 55.8591 41.711 56.0386 41.8681C56.2181 42.0252 56.4615 42.1135 56.7153 42.1135H59.9966C60.1223 42.1136 60.2468 42.092 60.3629 42.0499C60.4791 42.0078 60.5846 41.9461 60.6735 41.8683C60.7623 41.7904 60.8328 41.6981 60.8809 41.5964C60.929 41.4947 60.9537 41.3857 60.9536 41.2757V38.4029C60.9536 38.1807 60.8528 37.9676 60.6733 37.8105C60.4938 37.6533 60.2504 37.5651 59.9966 37.5651Z" fill="black"/>
<path d="M46.6211 8.99744H43.3398C43.086 8.99744 42.8426 9.08572 42.6631 9.24285C42.4836 9.39999 42.3828 9.61311 42.3828 9.83533C42.3828 10.0576 42.4836 10.2707 42.6631 10.4278C42.8426 10.585 43.086 10.6732 43.3398 10.6732H45.6641V12.7081C45.6641 12.9303 45.7649 13.1435 45.9444 13.3006C46.1239 13.4577 46.3673 13.546 46.6211 13.546C46.8749 13.546 47.1183 13.4577 47.2978 13.3006C47.4773 13.1435 47.5781 12.9303 47.5781 12.7081V9.83533C47.5782 9.72528 47.5535 9.6163 47.5054 9.51461C47.4574 9.41292 47.3869 9.32053 47.298 9.24271C47.2091 9.16489 47.1036 9.10318 46.9874 9.06109C46.8713 9.019 46.7468 8.99737 46.6211 8.99744Z" fill="black"/>
<path d="M46.6211 43.1909C46.3673 43.1909 46.1239 43.2792 45.9444 43.4363C45.7649 43.5934 45.6641 43.8066 45.6641 44.0288V46.0636H43.3398C43.086 46.0636 42.8426 46.1518 42.6631 46.309C42.4836 46.4661 42.3828 46.6792 42.3828 46.9014C42.3828 47.1236 42.4836 47.3367 42.6631 47.4939C42.8426 47.651 43.086 47.7393 43.3398 47.7393H46.6211C46.7468 47.7393 46.8713 47.7177 46.9874 47.6756C47.1036 47.6335 47.2091 47.5718 47.298 47.494C47.3869 47.4162 47.4574 47.3238 47.5054 47.2221C47.5535 47.1204 47.5782 47.0115 47.5781 46.9014V44.0288C47.5781 43.8066 47.4773 43.5934 47.2978 43.4363C47.1183 43.2792 46.8749 43.1909 46.6211 43.1909Z" fill="black"/>
<path d="M19.0269 23.5806C16.6743 23.5806 14.3747 24.1913 12.4186 25.3356C10.4626 26.4799 8.93802 28.1063 8.03775 30.0091C7.13748 31.912 6.90193 34.0058 7.36088 36.0259C7.81983 38.0459 8.95268 39.9015 10.6162 41.3579C12.2796 42.8142 14.399 43.806 16.7064 44.2079C19.0137 44.6097 21.4053 44.4035 23.5787 43.6153C25.7521 42.8271 27.6098 41.4923 28.9168 39.7798C30.2238 38.0673 30.9214 36.0539 30.9214 33.9943C30.9178 31.2333 29.6634 28.5864 27.4336 26.6342C25.2037 24.6819 22.1804 23.5837 19.0269 23.5806ZM19.0269 42.7322C17.0529 42.7322 15.1233 42.2197 13.482 41.2596C11.8407 40.2994 10.5615 38.9348 9.80611 37.3381C9.05071 35.7415 8.85306 33.9846 9.23816 32.2896C9.62326 30.5946 10.5738 29.0376 11.9696 27.8156C13.3654 26.5936 15.1437 25.7614 17.0798 25.4242C19.0158 25.0871 21.0225 25.2601 22.8462 25.9215C24.6699 26.5828 26.2286 27.7028 27.3253 29.1397C28.422 30.5767 29.0073 32.2661 29.0073 33.9943C29.0043 36.3109 27.9518 38.5319 26.0808 40.17C24.2097 41.8081 21.6729 42.7295 19.0269 42.7322Z" fill="black"/>
<path d="M20.2981 27.5066C20.114 27.4789 19.9247 27.499 19.7535 27.5643C19.5824 27.6297 19.4367 27.7375 19.3347 27.8744C19.2326 28.0113 19.1785 28.1714 19.179 28.3349C19.1796 28.4984 19.2348 28.6582 19.3378 28.7945C19.939 29.5913 20.2586 30.5256 20.2565 31.4805C20.2562 32.1961 20.0772 32.9031 19.732 33.5517C19.3869 34.2004 18.8839 34.7752 18.2584 35.2359C17.6329 35.6965 16.8999 36.0319 16.1108 36.2186C15.3217 36.4052 14.4956 36.4385 13.6902 36.3163C13.5066 36.2899 13.3181 36.3109 13.148 36.3768C12.9778 36.4427 12.8332 36.5507 12.732 36.6874C12.6308 36.8241 12.5773 36.9837 12.5781 37.1466C12.5789 37.3095 12.6339 37.4687 12.7365 37.6047C13.4204 38.5189 14.3535 39.2697 15.4516 39.7894C16.5497 40.3091 17.7783 40.5813 19.0266 40.5815C20.2748 40.5818 21.5036 40.31 22.6019 39.7907C23.7003 39.2714 24.6337 38.521 25.3181 37.607C26.0025 36.6931 26.4163 35.6443 26.5222 34.5554C26.6281 33.4665 26.4228 32.3716 25.9247 31.3695C25.4266 30.3674 24.6515 29.4896 23.6693 28.8152C22.687 28.1409 21.5284 27.6911 20.2981 27.5066ZM19.0261 38.9017C17.8598 38.9026 16.7224 38.5845 15.7727 37.992C16.8182 37.8531 17.8186 37.523 18.7086 37.023C19.5986 36.523 20.3583 35.8645 20.9382 35.0903C21.5181 34.3161 21.9051 33.4436 22.0741 32.5297C22.2431 31.6158 22.1903 30.6809 21.919 29.7861C22.9683 30.34 23.7816 31.1795 24.2345 32.1763C24.6874 33.1731 24.755 34.2723 24.4269 35.3058C24.0989 36.3394 23.3933 37.2505 22.418 37.8999C21.4427 38.5492 20.2513 38.9011 19.0261 38.9017Z" fill="black"/>
<path d="M33.2456 14.6232H29.9644C29.7105 14.6232 29.4671 14.7114 29.2876 14.8686C29.1082 15.0257 29.0073 15.2388 29.0073 15.4611C29.0073 15.6833 29.1082 15.8964 29.2876 16.0535C29.4671 16.2107 29.7105 16.299 29.9644 16.299H32.2886V18.3339C32.2886 18.5561 32.3894 18.7692 32.5689 18.9263C32.7484 19.0835 32.9918 19.1718 33.2456 19.1718C33.4994 19.1718 33.7428 19.0835 33.9223 18.9263C34.1018 18.7692 34.2026 18.5561 34.2026 18.3339V15.4611C34.2027 15.351 34.178 15.242 34.1299 15.1403C34.0819 15.0387 34.0114 14.9463 33.9225 14.8684C33.8336 14.7906 33.7281 14.7289 33.6119 14.6868C33.4958 14.6447 33.3713 14.6231 33.2456 14.6232Z" fill="black"/>
<path d="M4.80811 19.1718C4.93378 19.1718 5.05823 19.1501 5.17435 19.108C5.29046 19.0659 5.39596 19.0041 5.48483 18.9263C5.5737 18.8485 5.64419 18.7562 5.69229 18.6545C5.74038 18.5528 5.76514 18.4439 5.76514 18.3339V16.299H8.08936C8.34318 16.299 8.5866 16.2107 8.76608 16.0535C8.94556 15.8964 9.04639 15.6833 9.04639 15.4611C9.04639 15.2388 8.94556 15.0257 8.76608 14.8686C8.5866 14.7114 8.34318 14.6232 8.08936 14.6232H4.80811C4.68241 14.6231 4.55793 14.6447 4.44178 14.6868C4.32564 14.7289 4.2201 14.7906 4.13122 14.8684C4.04234 14.9463 3.97185 15.0387 3.92378 15.1403C3.87571 15.242 3.851 15.351 3.85107 15.4611V18.3339C3.85107 18.5561 3.9519 18.7692 4.13138 18.9263C4.31086 19.0835 4.55429 19.1718 4.80811 19.1718Z" fill="black"/>
<path d="M33.2456 48.8167C32.9918 48.8167 32.7484 48.9049 32.5689 49.0621C32.3894 49.2192 32.2886 49.4323 32.2886 49.6545V51.6894H29.9644C29.7105 51.6894 29.4671 51.7776 29.2876 51.9348C29.1082 52.0919 29.0073 52.305 29.0073 52.5272C29.0073 52.7495 29.1082 52.9626 29.2876 53.1197C29.4671 53.2768 29.7105 53.3651 29.9644 53.3651H33.2456C33.3713 53.3652 33.4958 53.3435 33.6119 53.3015C33.7281 53.2594 33.8336 53.1977 33.9225 53.1198C34.0114 53.042 34.0819 52.9496 34.1299 52.848C34.178 52.7463 34.2027 52.6373 34.2026 52.5272V49.6545C34.2026 49.4323 34.1018 49.2192 33.9223 49.0621C33.7428 48.9049 33.4994 48.8167 33.2456 48.8167Z" fill="black"/>
<path d="M8.08936 51.6894H5.76514V49.6545C5.76514 49.4323 5.66431 49.2192 5.48483 49.0621C5.30535 48.9049 5.06193 48.8167 4.80811 48.8167C4.55429 48.8167 4.31086 48.9049 4.13138 49.0621C3.9519 49.2192 3.85107 49.4323 3.85107 49.6545V52.5272C3.851 52.6373 3.87571 52.7463 3.92378 52.848C3.97185 52.9496 4.04234 53.042 4.13122 53.1198C4.2201 53.1977 4.32564 53.2594 4.44178 53.3015C4.55793 53.3435 4.68241 53.3652 4.80811 53.3651H8.08936C8.34318 53.3651 8.5866 53.2768 8.76608 53.1197C8.94556 52.9626 9.04639 52.7495 9.04639 52.5272C9.04639 52.305 8.94556 52.0919 8.76608 51.9348C8.5866 51.7776 8.34318 51.6894 8.08936 51.6894Z" fill="black"/>
</svg>
