<svg width="68" height="70" viewBox="0 0 68 70" fill="none" xmlns="http://www.w3.org/2000/svg">
<path d="M67.177 50.1016C65.8712 48.1826 63.6563 47.714 61.25 48.8463L59.9747 49.4078C61.9856 45.1217 62.2351 40.3438 61.234 35.8307C60.0844 30.6473 57.3075 25.6259 52.9806 20.9059C52.598 20.4885 51.9496 20.4604 51.532 20.8431C51.1146 21.2256 51.0865 21.8741 51.4692 22.2916C55.5497 26.7426 58.1615 31.4472 59.2323 36.2746C60.3601 41.3596 59.704 46.6036 56.8259 50.7942L44.0643 56.4132L44.0749 54.9719C44.0751 54.9355 44.0735 54.8992 44.0698 54.8629C43.7752 51.9006 41.5108 49.5405 38.5633 49.1235C38.5546 49.1221 38.5458 49.121 38.5369 49.12L27.1946 47.8141C22.8331 47.1933 21.7099 44.5796 15.8031 43.0892C15.395 39.6262 15.939 35.939 17.43 32.2425C19.6756 26.6756 24.0688 21.267 30.1591 16.5594C32.429 18.1688 42.5562 18.3691 44.8224 16.2929C45.9835 17.1746 47.0916 18.0832 48.1238 19.003C48.3192 19.1771 48.5628 19.2627 48.8055 19.2627C49.0877 19.2627 49.3687 19.1469 49.5712 18.9196C49.9479 18.4968 49.9104 17.8488 49.4877 17.4721C48.3562 16.4641 47.1391 15.4695 45.8626 14.5082C46.1617 13.2397 45.7431 11.7551 44.6384 10.8713C47.8484 6.00251 48.7821 2.81573 47.4924 1.14612C46.6066 -0.000815436 45.5047 0.537446 45.0341 0.767407C44.2365 1.15678 43.8016 1.17729 43.0677 0.697134C41.6675 -0.219019 40.1959 -0.24855 38.7506 0.697134C38.0074 1.18344 37.4221 1.18344 36.6792 0.697134C35.2789 -0.219019 33.8078 -0.24855 32.3623 0.697134C31.6199 1.18303 31.1834 1.15295 30.3983 0.762759C29.9283 0.529106 28.8276 -0.0180421 27.9362 1.12903C26.6755 2.75161 27.5189 5.8379 30.5124 10.5412C30.329 10.6403 30.1543 10.7566 29.9912 10.8895C28.8006 9.63225 26.8501 8.32098 24.0293 8.63598C21.6896 8.8978 19.9644 8.12465 18.9289 7.43012C18.4586 7.11512 17.8217 7.24063 17.5064 7.71067C17.1912 8.18098 17.3168 8.81782 17.787 9.13309C19.107 10.0181 21.3008 11.0033 24.2568 10.6736C26.4361 10.4292 27.9148 11.5429 28.8354 12.6763C28.8228 12.72 28.8112 12.7641 28.8004 12.8081C28.0152 12.8204 26.8417 12.8937 25.5495 13.1625C22.4416 13.809 20.1346 15.286 18.8777 17.4341C18.5919 17.9227 18.7562 18.5508 19.2448 18.8368C19.7336 19.1227 20.3615 18.9582 20.6474 18.4696C22.5169 15.2746 27.0802 14.8839 28.8927 14.8594C28.9004 14.882 28.9096 14.9043 28.9178 14.9267C22.4499 19.916 17.947 25.48 15.5287 31.4751C14.0002 35.2646 13.3896 39.061 13.6995 42.6688C12.7164 42.5234 11.7219 42.4453 10.7226 42.4385V41.8184C10.7226 40.178 9.38795 38.8434 7.74746 38.8434H3.04105C1.40057 38.8434 0.065918 40.1781 0.065918 41.8184V65.6956C0.065918 67.3362 1.40057 68.6707 3.04105 68.6707H7.74732C9.38781 68.6707 10.7225 67.3361 10.7225 65.6956V65.4035L20.9888 69.2247C22.3684 69.7381 23.8144 69.9985 25.2864 69.9985H40.5833C42.9221 69.9985 45.2024 69.3368 47.1777 68.0851C67.5842 55.1488 66.345 55.9537 66.4628 55.8492C68.1066 54.3901 68.4137 51.9191 67.177 50.1016ZM42.8985 15.078C39.1494 16.0247 35.5042 16.0247 31.7543 15.078C30.1453 14.6713 30.6115 11.8016 32.3407 12.2352C35.6955 13.0774 38.9571 13.0774 42.3121 12.2352C44.0113 11.8087 44.5334 14.6649 42.8985 15.078ZM29.462 2.58727C29.47 2.59124 29.4781 2.59534 29.4857 2.59917C30.8733 3.28877 32.0891 3.32624 33.4849 2.41309C35.2316 1.26971 35.4212 3.10297 37.7147 3.10297C38.8188 3.10297 39.4282 2.7043 39.8731 2.41309C40.6164 1.92665 41.2019 1.92692 41.9451 2.41309C43.347 3.33047 44.5334 3.28522 45.9613 2.59657C46.1723 3.357 45.6948 5.62393 42.6548 10.1501C41.1451 10.1244 38.9543 11.6072 32.7525 10.227C29.719 5.64225 29.2499 3.35331 29.462 2.58727ZM65.1572 54.2656L46.0802 66.3539C44.4337 67.3972 42.5329 67.9488 40.5835 67.9488H25.2866C24.0595 67.9488 22.8542 67.7317 21.7041 67.3036L10.7225 63.2162V52.1754C10.7225 51.6091 10.2635 51.1502 9.69734 51.1502C9.13119 51.1502 8.67223 51.6091 8.67223 52.1754V65.6961C8.67223 66.2061 8.25728 66.6209 7.74746 66.6209H3.04105C2.53109 66.6209 2.11629 66.2059 2.11629 65.6961V41.819C2.11629 41.309 2.53109 40.8944 3.04105 40.8944H7.74732C8.25728 40.8944 8.67209 41.3092 8.67209 41.819V47.3826C8.67209 47.9489 9.13105 48.4079 9.69721 48.4079C10.2634 48.4079 10.7223 47.9489 10.7223 47.3826V44.4894C19.2031 44.5543 21.1099 49.0243 26.9202 49.8462C26.929 49.8475 26.9377 49.8486 26.9465 49.8496L38.2882 51.1554C40.2742 51.4421 41.8026 53.0235 42.0238 55.0145L42.0096 56.9647H31.4323C30.8662 56.9647 30.4071 57.4237 30.4071 57.99C30.4071 58.5562 30.8661 59.0152 31.4323 59.0152H43.0273C43.1568 59.0152 43.3064 58.9865 43.4365 58.9298C43.4574 58.9205 62.0662 50.7273 62.088 50.7177C63.4293 50.1217 64.6523 50.0365 65.4816 51.2552C66.1264 52.2022 65.9836 53.4826 65.1572 54.2656Z" fill="black"/>
<path d="M37.5967 46.5145C38.1629 46.5145 38.622 46.0555 38.622 45.4892V43.7898C41.5001 43.3228 43.1794 40.9932 43.5447 38.8199C44.0011 36.1051 42.579 33.7441 39.9221 32.805C39.4526 32.639 39.0205 32.4803 38.6219 32.327V25.7902C39.8347 25.9913 40.5629 26.619 40.6159 26.6659C41.0323 27.0446 41.6768 27.0166 42.059 26.6023C42.4429 26.1862 42.4166 25.5376 42.0005 25.1537C41.9281 25.087 40.6725 23.9564 38.6219 23.72V22.2621C38.6219 21.6958 38.1629 21.2368 37.5966 21.2368C37.0304 21.2368 36.5715 21.6958 36.5715 22.2621V23.8029C36.3243 23.8502 36.0711 23.9104 35.8109 23.9887C34.0718 24.5125 32.7719 26.0037 32.4182 27.8801C32.0974 29.5829 32.6373 31.2206 33.8271 32.1538C34.5103 32.6896 35.3703 33.1802 36.5715 33.7046V41.8122C35.3859 41.762 34.656 41.5394 33.3829 40.7065C32.9092 40.3967 32.2737 40.5292 31.9638 41.0032C31.6538 41.4769 31.7866 42.1124 32.2605 42.4223C33.934 43.5172 35.0528 43.8028 36.5715 43.8619V45.4892C36.5715 46.0555 37.0304 46.5145 37.5967 46.5145ZM35.0926 30.5405C34.5073 30.0814 34.2545 29.2075 34.4332 28.2599C34.5989 27.3811 35.2031 26.3133 36.4024 25.9521C36.4594 25.9349 36.5154 25.9201 36.5715 25.9051V31.4429C35.9576 31.1363 35.4762 30.8414 35.0926 30.5405ZM39.2387 34.7382C41.7899 35.6399 41.6319 37.8304 41.5226 38.4802C41.2965 39.8256 40.3088 41.262 38.6219 41.6943V34.516C38.8215 34.589 39.0253 34.6627 39.2387 34.7382Z" fill="black"/>
</svg>
