<svg width="62" height="70" viewBox="0 0 62 70" fill="none" xmlns="http://www.w3.org/2000/svg">
<path d="M40.0064 27.1897V16.1328H40.5933C43.0057 16.1328 44.9683 14.1702 44.9683 11.7578C44.9683 9.34541 43.0057 7.38281 40.5933 7.38281H39.8908L40.7163 4.92365C41.0978 3.78711 40.9076 2.52766 40.2077 1.55436C39.5079 0.581055 38.3743 0 37.1755 0H24.7904C23.5915 0 22.458 0.581055 21.758 1.55436C21.0581 2.52766 20.8679 3.78725 21.2494 4.92365L22.075 7.38281H21.3725C18.9601 7.38281 16.9975 9.34541 16.9975 11.7578C16.9975 14.1702 18.9601 16.1328 21.3725 16.1328H21.9595V27.1897C18.1955 28.8497 14.9775 31.5031 12.6123 34.9079C10.0067 38.6586 8.62939 43.0635 8.62939 47.6466C8.62939 59.9724 18.6572 70.0001 30.9829 70.0001C43.3087 70.0001 53.3364 59.9724 53.3364 47.6466C53.3364 43.0637 51.9591 38.6586 49.3535 34.9079C46.9883 31.5031 43.7704 28.8496 40.0064 27.1897ZM23.8418 4.05344C23.7381 3.74445 23.7877 3.41537 23.978 3.15068C24.1684 2.886 24.4646 2.73424 24.7904 2.73424H37.1755C37.5014 2.73424 37.7975 2.886 37.9878 3.15068C38.1782 3.41537 38.2278 3.74432 38.124 4.05344L37.0066 7.38281H24.9594L23.8418 4.05344ZM19.7319 11.7578C19.7319 10.8531 20.4679 10.1172 21.3725 10.1172H40.5933C41.498 10.1172 42.2339 10.8531 42.2339 11.7578C42.2339 12.6625 41.498 13.3984 40.5933 13.3984H21.3725C20.4679 13.3984 19.7319 12.6625 19.7319 11.7578ZM23.8256 29.3739C24.3493 29.1687 24.6939 28.6635 24.6939 28.101V16.1328H37.272V28.101C37.272 28.6635 37.6165 29.1687 38.1403 29.3739C42.0606 30.9107 45.2596 33.5769 47.4359 36.9182C46.1828 37.9035 44.6473 38.4396 43.0284 38.4396C41.1184 38.4396 39.3229 37.6958 37.9725 36.3453C34.1186 32.4915 27.8475 32.4915 23.9936 36.3453C22.6431 37.6958 20.8475 38.4396 18.9377 38.4396C17.3188 38.4396 15.7833 37.9035 14.5302 36.9182C16.7062 33.5769 19.9054 30.9107 23.8256 29.3739ZM30.9829 67.2656C20.1649 67.2656 11.3638 58.4645 11.3638 47.6465C11.3638 44.6962 12.0103 41.8738 13.1922 39.3312C17.0511 42.0911 22.4641 41.7417 25.9271 38.2789C28.7149 35.491 33.2511 35.491 36.0389 38.2789C37.966 40.2058 40.4972 41.1694 43.0284 41.1694C45.0457 41.1694 47.0621 40.5553 48.7736 39.3312C49.9555 41.8739 50.6021 44.6962 50.6021 47.6465C50.6021 58.4645 41.8009 67.2656 30.9829 67.2656Z" fill="black"/>
<path d="M31.0002 46.2056C29.3667 44.5721 26.718 44.5721 25.0845 46.2056C23.451 47.8391 23.451 50.4878 25.0845 52.1213L31.0002 58.0371L36.9159 52.1214C38.5494 50.4879 38.5494 47.8393 36.9159 46.2057C35.2824 44.5722 32.6337 44.5721 31.0002 46.2056Z" fill="black"/>
<path d="M60.6442 14.618C59.7696 13.7434 58.6069 13.2617 57.37 13.2617C56.5469 13.2617 55.7568 13.475 55.0626 13.8753C54.3683 13.4749 53.5782 13.2617 52.7552 13.2617C51.5183 13.2617 50.3555 13.7434 49.4809 14.618C47.6756 16.4235 47.6756 19.3609 49.4809 21.1662L54.0958 25.7812C54.3628 26.0482 54.7127 26.1816 55.0626 26.1816C55.4124 26.1816 55.7623 26.0482 56.0293 25.7812L60.6442 21.1662C62.4495 19.3609 62.4495 16.4233 60.6442 14.618ZM58.7108 19.2328L55.0626 22.881L51.4144 19.2328C50.6751 18.4935 50.6751 17.2905 51.4144 16.5514C51.7724 16.1932 52.2486 15.996 52.7552 15.996C53.2616 15.996 53.7378 16.1932 54.0958 16.5514C54.6298 17.0853 55.4953 17.0853 56.0294 16.5514C56.3875 16.1932 56.8637 15.996 57.3701 15.996C57.8765 15.996 58.3528 16.1932 58.7109 16.5513C59.45 17.2907 59.45 18.4935 58.7108 19.2328Z" fill="black"/>
<path d="M12.5192 14.6178C11.6446 13.7434 10.4819 13.2616 9.24496 13.2616C8.42191 13.2616 7.63181 13.4749 6.93756 13.8752C6.2433 13.4749 5.4532 13.2617 4.63015 13.2617C3.39326 13.2617 2.23047 13.7434 1.35588 14.618C-0.449355 16.4235 -0.449355 19.3609 1.35588 21.1663L5.97082 25.7812C6.23783 26.0482 6.58769 26.1816 6.93756 26.1816C7.28742 26.1816 7.63728 26.0482 7.90429 25.7812L12.5192 21.1663C14.3245 19.3609 14.3245 16.4234 12.5192 14.6178ZM10.5858 19.2328L6.93756 22.881L3.28935 19.2328C2.55012 18.4935 2.55012 17.2906 3.28935 16.5513C3.64742 16.1933 4.12375 15.996 4.63015 15.996C5.13656 15.996 5.61275 16.1933 5.97082 16.5515C6.50484 17.0853 7.37027 17.0853 7.90443 16.5515C8.2625 16.1933 8.73869 15.996 9.24509 15.996C9.75164 15.996 10.2278 16.1933 10.5859 16.5513C11.325 17.2907 11.325 18.4935 10.5858 19.2328Z" fill="black"/>
</svg>
